<svg xmlns="http://www.w3.org/2000/svg" viewBox="0 0 200 100" fill="none">
  <!-- BNJ in pixel/block style - light blue -->
  <g fill="#7EC8E3">
    <!-- B -->
    <rect x="10" y="5" width="6" height="35"/>
    <rect x="16" y="5" width="12" height="6"/>
    <rect x="16" y="17" width="10" height="6"/>
    <rect x="16" y="34" width="12" height="6"/>
    <rect x="28" y="11" width="6" height="6"/>
    <rect x="26" y="23" width="6" height="11"/>
    <!-- N -->
    <rect x="38" y="5" width="6" height="35"/>
    <rect x="44" y="10" width="4" height="6"/>
    <rect x="48" y="16" width="4" height="6"/>
    <rect x="52" y="22" width="4" height="6"/>
    <rect x="56" y="28" width="4" height="6"/>
    <rect x="60" y="5" width="6" height="35"/>
    <!-- J -->
    <rect x="74" y="5" width="18" height="6"/>
    <rect x="82" y="11" width="6" height="22"/>
    <rect x="74" y="33" width="8" height="6"/>
    <rect x="70" y="27" width="6" height="8"/>
  </g>
  <!-- Studio in serif font -->
  <text x="12" y="82" font-family="'Playfair Display', Georgia, serif" font-size="36" font-weight="400" fill="#1A1A1A" letter-spacing="-0.5">Studio</text>
</svg>
