<svg xmlns="http://www.w3.org/2000/svg" viewBox="0 0 100 46" fill="none">
  <!-- BNJ in pixel/block style - light blue -->
  <g fill="#7EC8E3">
    <!-- B -->
    <rect x="0" y="0" width="6" height="35"/>
    <rect x="6" y="0" width="12" height="6"/>
    <rect x="6" y="14.5" width="10" height="6"/>
    <rect x="6" y="29" width="12" height="6"/>
    <rect x="18" y="6" width="6" height="8.5"/>
    <rect x="16" y="20.5" width="6" height="8.5"/>
    <!-- N -->
    <rect x="28" y="0" width="6" height="35"/>
    <rect x="34" y="5" width="4" height="6"/>
    <rect x="38" y="11" width="4" height="6"/>
    <rect x="42" y="17" width="4" height="6"/>
    <rect x="46" y="23" width="4" height="6"/>
    <rect x="50" y="0" width="6" height="35"/>
    <!-- J -->
    <rect x="64" y="0" width="18" height="6"/>
    <rect x="72" y="6" width="6" height="22"/>
    <rect x="64" y="28" width="8" height="6"/>
    <rect x="60" y="22" width="6" height="8"/>
  </g>
</svg>
